<svg data-v-fde0c5aa="" xmlns="http://www.w3.org/2000/svg" viewBox="0 0 300 300" class="iconAbove"><!----><defs data-v-fde0c5aa=""><linearGradient data-v-fde0c5aa="" gradientTransform="rotate(25)" id="6c4a607b-2373-4a53-9179-de31e11b2bbc" x1="0%" y1="0%" x2="100%" y2="0%"><stop data-v-fde0c5aa="" offset="0%" stop-color="#182471" stop-opacity="1"></stop><stop data-v-fde0c5aa="" offset="100%" stop-color="#2664C8" stop-opacity="1"></stop></linearGradient></defs><rect data-v-fde0c5aa="" fill="url(#6c4a607b-2373-4a53-9179-de31e11b2bbc)" x="0" y="0" width="300px" height="300px" class="logo-background-square"></rect><defs data-v-fde0c5aa=""><!----></defs><g data-v-fde0c5aa="" id="eab13e9d-ebe7-4153-9625-9b598f9d8e68" fill="#fff" transform="matrix(4.286891895444717,0,0,4.286891895444717,14.898598399122864,164.46578859759654)"><path d="M1.19 14.35L2.31 14.35L2.31 11.77L3.39 10.67L5.78 14.35L7.14 14.35L4.20 9.98L6.87 7.13L5.52 7.13L3.47 9.32L2.37 10.56L2.31 10.56L2.31 3.99L1.19 3.99ZM14.38 14.35L14.38 13.37L13.55 13.37L13.55 9.39C13.55 7.87 12.52 6.96 10.78 6.96C9.48 6.96 8.61 7.60 8.22 8.37L8.89 9.00C9.28 8.34 9.86 7.92 10.72 7.92C11.87 7.92 12.43 8.48 12.43 9.51L12.43 10.22L11.00 10.22C8.90 10.22 7.92 10.98 7.92 12.33C7.92 13.68 8.82 14.52 10.35 14.52C11.35 14.52 12.12 14.06 12.43 13.17L12.50 13.17C12.59 13.85 12.92 14.35 13.75 14.35ZM10.53 13.57C9.66 13.57 9.10 13.16 9.10 12.45L9.10 12.15C9.10 11.45 9.67 11.06 10.95 11.06L12.43 11.06L12.43 12.25C12.43 12.99 11.63 13.57 10.53 13.57ZM17.09 14.35L17.09 9.34C17.09 8.41 17.96 7.97 18.86 7.97C19.94 7.97 20.50 8.62 20.50 9.91L20.50 14.35L21.62 14.35L21.62 9.72C21.62 7.97 20.68 6.96 19.19 6.96C18.12 6.96 17.50 7.49 17.15 8.30L17.09 8.30L17.09 7.13L15.97 7.13L15.97 14.35ZM28.55 14.35L29.67 14.35L29.67 3.99L28.55 3.99L28.55 8.30L28.49 8.30C28.11 7.39 27.37 6.96 26.38 6.96C24.57 6.96 23.44 8.43 23.44 10.74C23.44 13.05 24.57 14.52 26.38 14.52C27.37 14.52 28.06 14.07 28.49 13.17L28.55 13.17ZM26.68 13.51C25.42 13.51 24.64 12.64 24.64 11.35L24.64 10.12C24.64 8.83 25.42 7.97 26.68 7.97C27.71 7.97 28.55 8.55 28.55 9.35L28.55 12.04C28.55 12.98 27.71 13.51 26.68 13.51ZM32.61 5.43C33.08 5.43 33.29 5.18 33.29 4.80L33.29 4.62C33.29 4.24 33.08 3.99 32.61 3.99C32.13 3.99 31.92 4.24 31.92 4.62L31.92 4.80C31.92 5.18 32.13 5.43 32.61 5.43ZM32.05 14.35L33.17 14.35L33.17 7.13L32.05 7.13ZM40.17 14.35L41.29 14.35L41.29 3.99L40.17 3.99L40.17 8.30L40.11 8.30C39.73 7.39 38.99 6.96 38.00 6.96C36.19 6.96 35.06 8.43 35.06 10.74C35.06 13.05 36.19 14.52 38.00 14.52C38.99 14.52 39.68 14.07 40.11 13.17L40.17 13.17ZM38.30 13.51C37.04 13.51 36.26 12.64 36.26 11.35L36.26 10.12C36.26 8.83 37.04 7.97 38.30 7.97C39.33 7.97 40.17 8.55 40.17 9.35L40.17 12.04C40.17 12.98 39.33 13.51 38.30 13.51ZM49.55 14.35L49.55 13.37L48.72 13.37L48.72 9.39C48.72 7.87 47.68 6.96 45.95 6.96C44.65 6.96 43.78 7.60 43.39 8.37L44.06 9.00C44.45 8.34 45.02 7.92 45.89 7.92C47.04 7.92 47.60 8.48 47.60 9.51L47.60 10.22L46.17 10.22C44.07 10.22 43.09 10.98 43.09 12.33C43.09 13.68 43.99 14.52 45.51 14.52C46.52 14.52 47.29 14.06 47.60 13.17L47.67 13.17C47.75 13.85 48.09 14.35 48.92 14.35ZM45.70 13.57C44.83 13.57 44.27 13.16 44.27 12.45L44.27 12.15C44.27 11.45 44.84 11.06 46.12 11.06L47.60 11.06L47.60 12.25C47.60 12.99 46.80 13.57 45.70 13.57ZM54.14 14.35L54.14 13.37L52.67 13.37L52.67 8.11L54.25 8.11L54.25 7.13L52.67 7.13L52.67 5.12L51.66 5.12L51.66 6.47C51.66 6.96 51.51 7.13 51.03 7.13L50.36 7.13L50.36 8.11L51.55 8.11L51.55 13.16C51.55 13.86 51.97 14.35 52.74 14.35ZM58.72 14.52C60.07 14.52 61.11 13.85 61.57 12.87L60.77 12.29C60.40 13.09 59.70 13.54 58.79 13.54C57.44 13.54 56.64 12.60 56.64 11.35L56.64 11.02L61.84 11.02L61.84 10.49C61.84 8.44 60.65 6.96 58.72 6.96C56.76 6.96 55.47 8.44 55.47 10.74C55.47 13.03 56.76 14.52 58.72 14.52ZM58.72 7.90C59.86 7.90 60.63 8.75 60.63 10.02L60.63 10.18L56.64 10.18L56.64 10.08C56.64 8.82 57.50 7.90 58.72 7.90Z"></path></g><defs data-v-fde0c5aa=""><!----></defs><g data-v-fde0c5aa="" id="c1a68b6c-19e6-4738-b557-8a40c6a9facb" stroke="none" fill="#fff" transform="matrix(1.5046733239907986,0,0,1.5046733239907986,89.81306704036805,58.24180485618012)"><path d="M31.96 40.001a.999.999 0 0 0-.959 1.039l.982 24.563L30 67.586l-1.983-1.983.982-24.563a.999.999 0 0 0-.959-1.039c-.539-.039-1.017.406-1.039.959l-1 25a.997.997 0 0 0 .292.747l3 3a.997.997 0 0 0 1.414 0l3-3a.997.997 0 0 0 .292-.747l-1-25c-.022-.553-.499-.999-1.039-.959zM18.29 68.29c-.181.189-.29.45-.29.71s.109.52.29.71c.189.18.439.29.71.29.26 0 .52-.11.71-.29.18-.19.29-.45.29-.71s-.11-.521-.29-.71c-.38-.37-1.05-.37-1.42 0zM52.293 12.293L47 17.586l-1.293-1.293a.999.999 0 1 0-1.414 1.414l2 2a.997.997 0 0 0 1.414 0l6-6a.999.999 0 1 0-1.414-1.414zM69 14h-8a1 1 0 1 0 0 2h8a1 1 0 1 0 0-2zM61 20h6a1 1 0 1 0 0-2h-6a1 1 0 1 0 0 2zM56.29 14.29c-.181.189-.29.45-.29.71s.109.52.29.71c.189.18.45.29.71.29.27 0 .52-.11.71-.29.18-.19.29-.45.29-.71s-.11-.521-.29-.71c-.37-.37-1.05-.37-1.42 0zM52.293 24.293L47 29.586l-1.293-1.293a.999.999 0 1 0-1.414 1.414l2 2a.997.997 0 0 0 1.414 0l6-6a.999.999 0 1 0-1.414-1.414zM69 26h-8a1 1 0 1 0 0 2h8a1 1 0 1 0 0-2zM61 32h6a1 1 0 1 0 0-2h-6a1 1 0 1 0 0 2zM56.29 26.29c-.181.189-.29.45-.29.71s.109.52.29.71c.189.18.45.29.71.29s.52-.11.71-.3c.18-.18.29-.44.29-.7s-.11-.521-.29-.71c-.38-.37-1.04-.37-1.42 0zM52.293 36.293L47 41.586l-1.293-1.293a.999.999 0 1 0-1.414 1.414l2 2a.997.997 0 0 0 1.414 0l6-6a.999.999 0 1 0-1.414-1.414zM69 38h-8a1 1 0 1 0 0 2h8a1 1 0 1 0 0-2zM69 42h-8a1 1 0 1 0 0 2h8a1 1 0 1 0 0-2zM56.29 38.29c-.181.189-.29.45-.29.71 0 .27.109.52.29.71.189.18.439.29.71.29.27 0 .52-.11.71-.29.18-.19.29-.44.29-.71 0-.26-.11-.521-.29-.71-.37-.37-1.05-.37-1.42 0zM52.293 48.293L47 53.586l-1.293-1.293a.999.999 0 1 0-1.414 1.414l2 2a.997.997 0 0 0 1.414 0l6-6a.999.999 0 1 0-1.414-1.414zM69 50h-8a1 1 0 1 0 0 2h8a1 1 0 1 0 0-2zM61 56h4a1 1 0 1 0 0-2h-4a1 1 0 1 0 0 2zM56.29 50.29c-.181.189-.29.439-.29.71 0 .27.109.52.29.71.189.18.439.29.71.29.26 0 .52-.11.71-.29.18-.19.29-.45.29-.71s-.11-.521-.29-.71c-.38-.37-1.05-.37-1.42 0zM52.293 60.293L47 65.586l-1.293-1.293a.999.999 0 1 0-1.414 1.414l2 2a.997.997 0 0 0 1.414 0l6-6a.999.999 0 1 0-1.414-1.414zM69 62h-8a1 1 0 1 0 0 2h8a1 1 0 1 0 0-2zM67 66h-6a1 1 0 1 0 0 2h6a1 1 0 1 0 0-2zM56.29 62.29c-.181.189-.29.439-.29.71 0 .26.109.52.29.71.189.18.45.29.71.29s.52-.11.71-.29c.18-.19.29-.45.29-.71s-.11-.521-.29-.71c-.38-.37-1.04-.37-1.42 0z"></path><path d="M41.399 38.048l-6.269-2.726v-2.298c.842-.635 2.364-2.218 3.407-5.817.361-.442 1.189-1.582 1.473-3.013.182-.897.223-2.53-.594-3.407.148-1.406.322-4.83-1.15-7.037C36.421 10.982 32.66 10 30 10s-6.421.982-8.267 3.75c-1.472 2.207-1.299 5.631-1.15 7.037-.816.877-.775 2.509-.595 3.403.284 1.434 1.112 2.574 1.474 3.017 1.043 3.6 2.565 5.183 3.407 5.817v2.298l-11.237 4.887C11.596 41.093 10 43.525 10 45.747V69a1 1 0 0 0 1 1h4a1 1 0 1 0 0-2h-3V45.747c0-1.411 1.135-3.143 2.429-3.704l11.839-5.148c.365-.159.602-.519.602-.917v-3.499c0-.377-.234-.733-.571-.903-.018-.009-1.813-.958-2.97-5.118a1.022 1.022 0 0 0-.229-.41c-.009-.01-.902-.999-1.149-2.249-.139-.684-.046-1.412.089-1.622a1 1 0 0 0 .599-1.085c-.188-1.136-.416-4.468.76-6.231C24.902 12.603 28.256 12 30 12s5.098.603 6.603 2.859c1.171 1.756.945 5.094.76 6.232-.075.459.176.906.599 1.084.135.21.228.938.088 1.626-.246 1.246-1.14 2.235-1.146 2.243a.989.989 0 0 0-.23.412c-1.156 4.158-2.95 5.108-2.948 5.108a1 1 0 0 0-.593.913v3.499c0 .398.236.759.602.917l6.87 2.987a1 1 0 0 0 1.315-.519 1 1 0 0 0-.521-1.313z"></path></g><!----></svg>